<svg width="200" height="70" viewBox="0 0 470 158" fill="none" xmlns="http://www.w3.org/2000/svg">
<path fill-rule="evenodd" clip-rule="evenodd" d="M242.16 -7.62939e-06H220.485H198.396H187.446V10.9358H198.396H220.485V71.1175V76.5855H242.16V71.1175V10.9358H264.059H274.985V-7.62939e-06H264.059H242.16ZM126.76 -7.62939e-06C123.667 -7.62939e-06 120.289 0.33329 116.638 1.02423C115.116 1.2347 114.088 1.39581 113.531 1.54678L111.268 2.36056L105.899 4.42644C102.532 6.08523 99.5752 8.39992 97.0393 11.3464C95.9242 12.7175 95.0966 14.338 94.5528 16.2073C93.9951 18.0627 93.7216 19.981 93.7216 21.9731V32.8108V43.7605V54.8121L94.0337 58.6209L94.9738 61.3075L95.5805 62.8544L96.6044 64.401L97.8565 66.267L100.54 68.7538C102.605 70.5984 105.899 72.4538 110.441 74.3234C114.993 75.8312 120.422 76.5855 126.76 76.5855H170.31H181.263V65.6497H170.31H126.76C124.284 65.6497 122.145 65.1059 120.349 64.0049L117.059 60.2801L116.031 56.457L115.821 55.5277L115.6 54.8121V43.7605H137.275H148.435V32.8108H137.275H115.6V21.9731C115.6 19.7813 116.031 17.989 116.848 16.614L118.704 14.2256L120.559 12.693C121.376 12.0756 122.551 11.655 124.073 11.4549L126.76 10.9358H170.31H181.263V-7.62939e-06H170.31H126.76ZM65.6351 5.45381L64.4111 10.01L61.9385 17.9503L60.9985 20.9458L60.2797 22.7027L59.1396 26.1049L58.0034 28.1707L53.251 39.3309L50.5783 45.8263L50.0593 46.8541L48.3023 49.9616L47.0641 53.1637L46.026 55.2191L43.5499 59.14L38.801 49.9616L36.9456 45.4057C36.6721 44.3815 35.6444 42.3507 33.8523 39.3309L31.9934 34.582L30.9693 31.885L29.0999 28.1707C28.2827 24.46 27.034 21.0578 25.3753 17.9503L22.8992 10.01L21.875 5.45381V-7.62939e-06H0V5.45381L0.813769 10.5291L1.33631 13.4119L1.74331 15.1795L2.47255 16.814L3.50025 18.7817L5.77661 24.6705L6.70583 27.4551L7.84251 30.0401L10.5148 37.153L10.6762 37.8331L11.2443 39.0119L12.7911 41.4984C13.4856 43.8975 14.3028 46.114 15.2672 48.1061L16.5158 50.8769L18.1607 53.8686L23.3199 63.2753L26.8344 68.5328L31.1658 72.6643L33.4419 74.211L36.325 75.5473L39.7411 76.2768L43.5499 76.5855C48.5128 76.5855 52.6933 75.2878 56.148 72.6643C58.6943 70.3388 61.2441 67.1965 63.78 63.2753L66.477 58.9439L67.7044 56.457L69.3601 53.7844L74.9294 41.4984L79.6783 30.0401L83.8136 19.399L86.4966 10.5291L87.5382 5.45381V-7.62939e-06H65.6351V5.45381Z" fill="#2E6A20"/>
<path fill-rule="evenodd" clip-rule="evenodd" d="M396.799 21.977C396.799 19.7744 397.22 17.9925 398.048 16.607L399.904 14.2433L401.748 12.6861C402.59 12.0686 403.751 11.6584 405.273 11.4479L407.945 10.9289H429.624L431.9 11.4479C433.149 11.5846 434.376 12.0685 435.625 12.907C436.442 13.2438 437.617 14.3449 439.125 16.2003C439.746 17.512 440.227 19.4306 440.574 21.977C440.574 24.253 440.167 26.1856 439.336 27.7568C438.582 28.9317 437.445 29.9944 435.923 30.9731C434.622 31.6533 433.275 32.1619 431.9 32.5196L429.624 32.8178H396.799V21.977ZM429.624 0.00357819H407.945C404.852 0.00357819 401.488 0.336853 397.838 1.03126C396.329 1.22777 395.288 1.40308 394.734 1.55035L392.468 2.36758L387.098 4.43336C383.721 6.09226 380.764 8.39298 378.228 11.3498C377.113 12.7244 376.296 14.3449 375.738 16.2003C375.194 18.0696 374.911 19.9845 374.911 21.977V32.8178V43.7678V71.1247V76.5924H396.799V71.1247V43.7678H429.624L431.9 44.1744C433.002 44.3849 434.176 44.8198 435.464 45.4617C436.737 46.1175 437.95 47.3067 439.125 49.0392C439.746 50.3369 440.227 52.2553 440.574 54.8017V71.1247V76.5924H462.463V71.1247V54.8017C462.463 52.5395 462.287 50.8804 461.944 49.8527C461.733 48.6778 461.445 47.7029 461.063 46.91L459.566 44.7951C458.948 43.7045 457.907 42.491 456.472 41.1933C455.645 40.3517 454.196 39.387 452.13 38.2858C454.817 36.9109 457.303 34.7856 459.566 31.8885C461.498 29.1422 462.463 25.8384 462.463 21.977L462.35 19.5041C462.35 18.4767 462.116 17.3366 461.631 16.088C461.211 14.3063 460.26 12.6861 458.738 11.2375C456.609 8.49137 453.863 6.30276 450.534 4.69299C447.192 3.08288 443.457 1.84848 439.336 1.03126L434.275 0.301697L429.624 0.00357819ZM335.899 65.6428H303.074V43.7678H335.899L338.175 44.1744C339.277 44.3849 340.451 44.8198 341.739 45.4617C343.001 46.1175 344.225 47.3067 345.4 49.0392C346.021 50.3369 346.501 52.2553 346.838 54.8017C346.838 57.3514 346.368 59.3189 345.4 60.6938L343.534 62.7597L341.469 64.096C340.578 64.6537 339.477 65.0604 338.175 65.3446L335.899 65.6428ZM346.838 21.977C346.838 24.253 346.428 26.1856 345.6 27.7568C344.846 28.9317 343.706 29.9944 342.198 30.9731C340.886 31.6533 339.55 32.1619 338.175 32.5196L335.899 32.8178H303.074V10.9289H335.899L338.175 11.4479C339.399 11.5846 340.651 12.0685 341.886 12.907C342.717 13.2438 343.878 14.3449 345.4 16.2003C346.021 17.512 346.501 19.4306 346.838 21.977ZM335.899 0.00357819H292.125H281.185V5.46084V32.8178V43.7678V71.1247V76.5924H292.125H335.899C337.484 76.5924 338.954 76.5187 340.343 76.3681C341.714 76.2452 343.261 76.0243 344.979 75.7122C346.702 75.3929 348.62 74.9336 350.76 74.3162L356.325 72.1628C359.927 70.43 362.81 68.1926 365.013 65.4427L366.188 63.5769C366.584 62.8964 367.079 61.9285 367.686 60.6938L368.303 57.6005L368.724 54.8017C368.724 52.5395 368.552 50.8804 368.205 49.8527C368.008 48.6778 367.71 47.7029 367.328 46.91L365.83 44.7951C365.21 43.7045 364.185 42.491 362.737 41.1933C361.919 40.3517 360.461 39.387 358.395 38.2858C361.078 36.9109 363.554 34.7856 365.83 31.8885C367.759 29.1422 368.724 25.8384 368.724 21.977L368.626 19.5041C368.626 18.4767 368.376 17.3366 367.906 16.088C367.486 14.3063 366.521 12.6861 365.013 11.2375C362.884 8.49137 360.138 6.30276 356.809 4.69299C353.457 3.08288 349.732 1.84848 345.6 1.03126L340.539 0.301697L335.899 0.00357819Z" fill="#2E6A20"/>
<path d="M332.381 124.507C331.679 128.667 330.334 132.261 328.345 135.29C326.356 138.306 323.925 140.632 321.052 142.27C318.179 143.895 315.066 144.708 311.712 144.708C308.255 144.708 305.31 143.863 302.88 142.173C300.462 140.47 298.733 138.065 297.693 134.958C296.666 131.839 296.504 128.147 297.206 123.883C297.908 119.724 299.253 116.136 301.242 113.12C303.231 110.091 305.668 107.764 308.554 106.14C311.44 104.502 314.572 103.683 317.952 103.683C321.384 103.683 324.302 104.534 326.707 106.237C329.125 107.927 330.847 110.332 331.874 113.452C332.914 116.558 333.083 120.243 332.381 124.507ZM327.779 123.883C328.351 120.477 328.267 117.611 327.526 115.284C326.785 112.958 325.556 111.196 323.841 110C322.125 108.804 320.084 108.206 317.718 108.206C315.248 108.206 312.908 108.837 310.699 110.098C308.489 111.346 306.597 113.185 305.025 115.616C303.452 118.034 302.379 120.997 301.807 124.507C301.235 127.913 301.32 130.779 302.061 133.106C302.802 135.433 304.03 137.194 305.746 138.39C307.462 139.586 309.503 140.184 311.868 140.184C314.338 140.184 316.678 139.56 318.888 138.312C321.098 137.051 322.989 135.212 324.562 132.794C326.135 130.363 327.207 127.393 327.779 123.883ZM375.531 104.229L368.902 144.162H364.222L347.687 112.808H347.297L342.072 144.162H337.236L343.866 104.229H348.545L365.158 135.66H365.548L370.773 104.229H375.531Z" fill="#2E6A20"/>
<path d="M262.273 131.677H217.28L190.629 115.824H0.00170922" stroke="#2E6A20" stroke-width="3.32911" stroke-miterlimit="22.9256"/>
<path fill-rule="evenodd" clip-rule="evenodd" d="M269.338 138.744C273.242 138.744 276.407 135.579 276.407 131.676C276.407 127.774 273.242 124.609 269.338 124.609C265.436 124.609 262.272 127.774 262.272 131.676C262.272 135.579 265.436 138.744 269.338 138.744Z" fill="#2E6A20" stroke="#2E6A20" stroke-width="2.27336" stroke-miterlimit="22.9256"/>
<path d="M454.866 128.843H390.991" stroke="#2E6A20" stroke-width="3.2944" stroke-miterlimit="22.9256"/>
<path fill-rule="evenodd" clip-rule="evenodd" d="M461.932 135.911C465.834 135.911 469 132.746 469 128.844C469 124.941 465.834 121.776 461.932 121.776C458.03 121.776 454.865 124.941 454.865 128.844C454.865 132.746 458.03 135.911 461.932 135.911Z" fill="#2E6A20" stroke="#186E36" stroke-width="1.13668" stroke-miterlimit="22.9256"/>
</svg>